# xmcd
#
# Track frame offsets:
#	150
#	19490
#	35550
#	55138
#	70738
#	84050
#	98610
#	114168
#	125513
#	143218
#	154625
#	169328
#	181515
#	202090
#	219020
#	233085
#	244478
#
# Disc length: 3437 seconds
#
# Revision: 1
# Processed by: cddbd v1.5.2PL0 Copyright (c) Steve Scherf et al.
# Submitted via: audiograbber 1.83.01
#
DISCID=dc0d6b11
DTITLE=Diverse Artiesten - OLON-COUNTRY
DYEAR=2000
DGENRE=Country
TTITLE0=Sandra Vanreys - You Haven't Told Her More
TTITLE1=Kees Versluijs - Endeavour
TTITLE2=Highway 86 - Blue Lonesome Wind
TTITLE3=Texas Renegade - You Told Me Not To Drink
TTITLE4=Wim Pols and Calyx - Fly Back Home To You
TTITLE5=Desperado and Jony De Boer - Lonely Room
TTITLE6=Cornell Grant - A Heart That's So Stone Gold
TTITLE7=Swamp - Parlez Nous A Boire
TTITLE8=Cash On Delivery - No More You
TTITLE9=Major Dundee - Adios Amiga
TTITLE10=4 Wheel Drive - Occasional Blues
TTITLE11=West Virginian Railroad - My Livin'  To Do
TTITLE12=Rene Wingelaar - I Guess I Call It Home
TTITLE13=Dick Van Altena - Come On Rosie
TTITLE14=Stef White - My Style
TTITLE15=Ben Steneker - Goodmorning Heartache
TTITLE16=Savannah - It's Getting Better Every Day
EXTD=OLON Country Special
EXTT0=
EXTT1=
EXTT2=
EXTT3=
EXTT4=
EXTT5=
EXTT6=
EXTT7=
EXTT8=
EXTT9=
EXTT10=
EXTT11=
EXTT12=
EXTT13=
EXTT14=
EXTT15=
EXTT16=
PLAYORDER=
